<svg xmlns="http://www.w3.org/2000/svg" viewBox="0 0 128 128">
  <rect width="128" height="128" rx="16" fill="#1f2937"/>
  <path fill="#f3d01a" d="M19 19h90v90H19z"/>
  <path fill="#111827" d="M68.2 94.9c1.8 2.9 4 4.6 8 4.6 3.3 0 5.4-1.6 5.4-3.9 0-2.7-2.1-3.8-5.7-5.5l-1.9-.8c-5.4-2.3-9-5.2-9-11.3 0-5.6 4.3-9.8 11.1-9.8 4.8 0 8.3 1.7 10.8 6.1l-5.9 3.8c-1.3-2.3-2.7-3.2-4.9-3.2-2.2 0-3.6 1.4-3.6 3.2 0 2.3 1.4 3.3 4.8 4.8l1.9.8c6.4 2.7 10.1 5.5 10.1 11.7 0 6.7-5.3 10.4-12.4 10.4-6.9 0-11.3-3.2-13.5-7.5zm-26.3.6c1.3 2.3 2.5 4.3 5.4 4.3 2.7 0 4.5-1 4.5-5.1V67h7.5v27.8c0 7.8-4.6 11.4-11.4 11.4-6.1 0-9.6-3.2-11.4-7z"/>
</svg>
