<svg viewBox="0 0 128 128" xmlns="http://www.w3.org/2000/svg" role="img" aria-label="TypeScript">
  <rect width="128" height="128" rx="16" fill="#1f2937"/>
  <rect x="16" y="16" width="96" height="96" rx="12" fill="#3178c6"/>
  <path fill="#fff" d="M40 54h48v10H75v36H63V64H40z"/>
  <path fill="#fff" d="M70 87c2 5 7 9 14 9 6 0 10-3 10-7 0-4-3-6-9-8l-6-2c-10-3-15-8-15-16 0-10 9-17 21-17 10 0 18 5 21 12l-10 5c-2-5-6-7-11-7s-9 3-9 7c0 4 3 6 9 8l6 2c11 3 16 8 16 16 0 10-8 17-22 17-11 0-19-5-23-13z" opacity=".15"/>
</svg>
